<svg width="20" height="20" viewBox="0 0 20 20" fill="none" xmlns="http://www.w3.org/2000/svg">
<path d="M5.66666 15.0834H2.91666C2.74999 15.0834 2.66666 15 2.58333 14.9167C2.49999 14.8334 2.41666 14.6667 2.49999 14.5C2.99999 13.0834 4.24999 12.25 5.66666 12.25C7.41666 12.25 8.83333 10.75 8.83333 9.00003C8.83333 7.25003 7.41666 5.58336 5.66666 5.58336C3.91666 5.58336 2.49999 7.08336 2.49999 8.91669C2.49999 9.75003 2.83333 10.5834 3.33333 11.1667C2.24999 11.75 1.41666 12.6667 0.91666 13.9167C0.749994 14.5 0.833327 15.25 1.24999 15.8334C1.66666 16.4167 2.24999 16.75 2.91666 16.75H5.66666C6.16666 16.75 6.49999 16.4167 6.49999 15.9167C6.49999 15.4167 6.16666 15.0834 5.66666 15.0834ZM4.16666 8.91669C4.16666 8.00003 4.83333 7.33336 5.66666 7.33336C6.49999 7.33336 7.16666 8.08336 7.16666 8.91669C7.16666 9.83336 6.49999 10.5 5.66666 10.5C4.83333 10.5 4.16666 9.75003 4.16666 8.91669Z" fill="#101828"/>
<path d="M19.0833 13.4167C18.5 11.8334 17.3333 10.6667 16 10C16.75 9.33336 17.1666 8.33336 17.1666 7.16669C17.1666 5.00002 15.5 3.25002 13.5 3.25002C11.5 3.25002 9.83331 5.00002 9.83331 7.16669C9.83331 8.25002 10.25 9.25002 11 10C9.66664 10.6667 8.49998 11.8334 7.91664 13.4167C7.49998 14.1667 7.66664 15 8.08331 15.6667C8.49998 16.3334 9.24998 16.6667 9.99998 16.6667H16.9166C17.6666 16.6667 18.4166 16.25 18.8333 15.6667C19.3333 15 19.4166 14.1667 19.0833 13.4167ZM11.4166 7.25002C11.4166 6.00002 12.3333 5.00002 13.4166 5.00002C14.5 5.00002 15.4166 6.00002 15.4166 7.25002C15.4166 8.50002 14.5 9.50002 13.4166 9.50002C12.3333 9.50002 11.4166 8.41669 11.4166 7.25002ZM17.4166 14.75C17.3333 14.8334 17.1666 15.0834 16.9166 15.0834H9.99998C9.66664 15.0834 9.49998 14.8334 9.49998 14.75C9.41664 14.6667 9.24998 14.3334 9.41665 14C10.0833 12.25 11.75 11.0834 13.5 11.0834C15.25 11.0834 16.9166 12.25 17.5833 14C17.6666 14.3334 17.5 14.6667 17.4166 14.75Z" fill="#101828"/>
</svg>
